<svg xmlns="http://www.w3.org/2000/svg" width="640" height="360" viewBox="0 0 640 360">
  <defs>
    <linearGradient id="bg" x1="0" y1="0" x2="1" y2="1">
      <stop offset="0" stop-color="#0b1220"/>
      <stop offset="1" stop-color="#1f2937"/>
    </linearGradient>
    <linearGradient id="accent" x1="0" y1="0" x2="1" y2="0">
      <stop offset="0" stop-color="#60a5fa"/>
      <stop offset="1" stop-color="#34d399"/>
    </linearGradient>
  </defs>
  <rect width="640" height="360" fill="url(#bg)"/>
  <rect x="56" y="70" width="528" height="220" rx="14" fill="#111827" opacity="0.75"/>
  <rect x="56" y="70" width="528" height="6" fill="url(#accent)"/>
  <circle cx="92" cy="98" r="10" fill="#ef4444"/>
  <circle cx="124" cy="98" r="10" fill="#f59e0b"/>
  <circle cx="156" cy="98" r="10" fill="#10b981"/>
  <path d="M146 226c34-64 76-96 128-96 64 0 112 54 146 124" fill="none" stroke="#60a5fa" stroke-width="8" stroke-linecap="round" opacity="0.85"/>
  <path d="M176 248c28-40 58-60 92-60 44 0 76 30 98 68" fill="none" stroke="#34d399" stroke-width="8" stroke-linecap="round" opacity="0.85"/>
  <text x="320" y="312" text-anchor="middle" font-family="system-ui, -apple-system, Segoe UI, Roboto, Arial" font-size="18" fill="#9ca3af">No preview</text>
</svg>

