{
  "accessors": [
    {
      "bufferView": 2,
      "componentType": 5126,
      "count": 8150,
      "max": [
        93.0268783569336,
        21.710987091064453,
        154.11529541015625
      ],
      "min": [
        -93.02688598632813,
        -45.386600494384766,
        24.66875648498535
      ],
      "type": "VEC3"
    },
    {
      "bufferView": 2,
      "byteOffset": 97800,
      "componentType": 5126,
      "count": 8150,
      "max": [
        1.0,
        1.0,
        1.0
      ],
      "min": [
        -1.0,
        -1.0,
        -1.0
      ],
      "type": "VEC3"
    },
    {
      "bufferView": 1,
      "componentType": 5126,
      "count": 8150,
      "max": [
        0.9916989803314209,
        0.8989260196685791
      ],
      "min": [
        0.00419999985024333,
        0.004395000170916319
      ],
      "type": "VEC2"
    },
    {
      "bufferView": 0,
      "componentType": 5125,
      "count": 44070,
      "type": "SCALAR"
    },
    {
      "bufferView": 2,
      "byteOffset": 195600,
      "componentType": 5126,
      "count": 3538,
      "max": [
        29.777912139892578,
        6.842471122741699,
        138.93511962890625
      ],
      "min": [
        -29.777793884277344,
        -32.2148551940918,
        83.96329498291016
      ],
      "type": "VEC3"
    },
    {
      "bufferView": 2,
      "byteOffset": 238056,
      "componentType": 5126,
      "count": 3538,
      "max": [
        0.9999991655349731,
        0.9999595880508423,
        0.9999711513519287
      ],
      "min": [
        -0.9999991655349731,
        -0.9999687671661377,
        -0.9999819993972778
      ],
      "type": "VEC3"
    },
    {
      "bufferView": 1,
      "byteOffset": 65200,
      "componentType": 5126,
      "count": 3538,
      "max": [
        0.9975590109825134,
        0.9949039816856384
      ],
      "min": [
        0.004997000098228455,
        0.005371000152081251
      ],
      "type": "VEC2"
    },
    {
      "bufferView": 0,
      "byteOffset": 176280,
      "componentType": 5125,
      "count": 18276,
      "type": "SCALAR"
    },
    {
      "bufferView": 2,
      "byteOffset": 280512,
      "componentType": 5126,
      "count": 2156,
      "max": [
        61.295204162597656,
        8.218396186828613,
        84.62440490722656
      ],
      "min": [
        -61.29519271850586,
        -19.116981506347656,
        -0.1000789999961853
      ],
      "type": "VEC3"
    },
    {
      "bufferView": 2,
      "byteOffset": 306384,
      "componentType": 5126,
      "count": 2156,
      "max": [
        1.0,
        0.9999997615814209,
        1.0
      ],
      "min": [
        -1.0,
        -0.9999997615814209,
        -1.0
      ],
      "type": "VEC3"
    },
    {
      "bufferView": 1,
      "byteOffset": 93504,
      "componentType": 5126,
      "count": 2156,
      "max": [
        0.9907230138778687,
        0.7845460176467896
      ],
      "min": [
        0.004997000098228455,
        0.004395000170916319
      ],
      "type": "VEC2"
    },
    {
      "bufferView": 0,
      "byteOffset": 249384,
      "componentType": 5125,
      "count": 10620,
      "type": "SCALAR"
    },
    {
      "bufferView": 2,
      "byteOffset": 332256,
      "componentType": 5126,
      "count": 492,
      "max": [
        41.789100646972656,
        16.815399169921875,
        62.37151336669922
      ],
      "min": [
        -41.789093017578125,
        -17.524402618408203,
        40.70620346069336
      ],
      "type": "VEC3"
    },
    {
      "bufferView": 2,
      "byteOffset": 338160,
      "componentType": 5126,
      "count": 492,
      "max": [
        0.9999973773956299,
        0.9999997615814209,
        0.007300018332898617
      ],
      "min": [
        -0.9999973773956299,
        -0.9999997615814209,
        -1.0
      ],
      "type": "VEC3"
    },
    {
      "bufferView": 1,
      "byteOffset": 110752,
      "componentType": 5126,
      "count": 492,
      "max": [
        0.9921879768371582,
        0.7772219777107239
      ],
      "min": [
        0.3347170054912567,
        0.12744100391864777
      ],
      "type": "VEC2"
    },
    {
      "bufferView": 0,
      "byteOffset": 291864,
      "componentType": 5125,
      "count": 2400,
      "type": "SCALAR"
    },
    {
      "bufferView": 2,
      "byteOffset": 344064,
      "componentType": 5126,
      "count": 1992,
      "max": [
        41.9734992980957,
        16.848398208618164,
        65.44561767578125
      ],
      "min": [
        -41.97349166870117,
        -18.62520408630371,
        33.985782623291016
      ],
      "type": "VEC3"
    },
    {
      "bufferView": 2,
      "byteOffset": 367968,
      "componentType": 5126,
      "count": 1992,
      "max": [
        1.0,
        1.0,
        0.9971600770950317
      ],
      "min": [
        -1.0,
        -1.0,
        -1.0
      ],
      "type": "VEC3"
    },
    {
      "bufferView": 1,
      "byteOffset": 114688,
      "componentType": 5126,
      "count": 1992,
      "max": [
        0.9038090109825134,
        0.9927020072937012
      ],
      "min": [
        0.004997000098228455,
        0.0039059999398887157
      ],
      "type": "VEC2"
    },
    {
      "bufferView": 0,
      "byteOffset": 301464,
      "componentType": 5125,
      "count": 18570,
      "type": "SCALAR"
    }
  ],
  "asset": {
    "extras": {
      "author": "SMF Features Developed From Cheryl Hill (https://sketchfab.com/cherylhill28)",
      "license": "CC-BY-4.0 (http://creativecommons.org/licenses/by/4.0/)",
      "source": "https://sketchfab.com/3d-models/bfbbr-spongebob-cutscene-ba13f2247c084cd68bfc3063b4b7a244",
      "title": "BFBBR - SpongeBob Cutscene"
    },
    "generator": "Sketchfab-16.72.0",
    "version": "2.0"
  },
  "bufferViews": [
    {
      "buffer": 0,
      "byteLength": 375744,
      "name": "floatBufferViews",
      "target": 34963
    },
    {
      "buffer": 0,
      "byteLength": 130624,
      "byteOffset": 375744,
      "byteStride": 8,
      "name": "floatBufferViews",
      "target": 34962
    },
    {
      "buffer": 0,
      "byteLength": 391872,
      "byteOffset": 506368,
      "byteStride": 12,
      "name": "floatBufferViews",
      "target": 34962
    }
  ],
  "buffers": [
    {
      "byteLength": 898240,
      "uri": "scene.bin"
    }
  ],
  "images": [
    {
      "uri": "textures/SpongeBobBody_baseColor.png"
    }
  ],
  "materials": [
    {
      "doubleSided": true,
      "name": "SpongeBobBody",
      "pbrMetallicRoughness": {
        "baseColorTexture": {
          "index": 0
        },
        "metallicFactor": 0.0,
        "roughnessFactor": 0.9602364635616475
      }
    },
    {
      "doubleSided": true,
      "name": "SpongeBobGloss",
      "pbrMetallicRoughness": {
        "baseColorTexture": {
          "index": 0
        },
        "metallicFactor": 0.0,
        "roughnessFactor": 0.9602364635616475
      }
    },
    {
      "doubleSided": true,
      "name": "SpongeBobLimbClothes",
      "pbrMetallicRoughness": {
        "baseColorTexture": {
          "index": 0
        },
        "metallicFactor": 0.0,
        "roughnessFactor": 0.9602364635616475
      }
    },
    {
      "doubleSided": true,
      "name": "SpongeBobPants",
      "pbrMetallicRoughness": {
        "baseColorTexture": {
          "index": 0
        },
        "metallicFactor": 0.0,
        "roughnessFactor": 0.9602364635616475
      }
    },
    {
      "doubleSided": true,
      "name": "SpongeBobTrousers",
      "pbrMetallicRoughness": {
        "baseColorFactor": [
          0.8,
          0.8,
          0.8,
          1.0
        ],
        "metallicFactor": 0.0,
        "roughnessFactor": 0.9602364635616475
      }
    }
  ],
  "meshes": [
    {
      "name": "Object_0",
      "primitives": [
        {
          "attributes": {
            "NORMAL": 1,
            "POSITION": 0,
            "TEXCOORD_0": 2
          },
          "indices": 3,
          "material": 0,
          "mode": 4
        }
      ]
    },
    {
      "name": "Object_1",
      "primitives": [
        {
          "attributes": {
            "NORMAL": 5,
            "POSITION": 4,
            "TEXCOORD_0": 6
          },
          "indices": 7,
          "material": 1,
          "mode": 4
        }
      ]
    },
    {
      "name": "Object_2",
      "primitives": [
        {
          "attributes": {
            "NORMAL": 9,
            "POSITION": 8,
            "TEXCOORD_0": 10
          },
          "indices": 11,
          "material": 2,
          "mode": 4
        }
      ]
    },
    {
      "name": "Object_3",
      "primitives": [
        {
          "attributes": {
            "NORMAL": 13,
            "POSITION": 12,
            "TEXCOORD_0": 14
          },
          "indices": 15,
          "material": 4,
          "mode": 4
        }
      ]
    },
    {
      "name": "Object_4",
      "primitives": [
        {
          "attributes": {
            "NORMAL": 17,
            "POSITION": 16,
            "TEXCOORD_0": 18
          },
          "indices": 19,
          "material": 3,
          "mode": 4
        }
      ]
    }
  ],
  "nodes": [
    {
      "children": [
        1
      ],
      "matrix": [
        1.0,
        0.0,
        0.0,
        0.0,
        0.0,
        2.220446049250313e-16,
        -1.0,
        0.0,
        0.0,
        1.0,
        2.220446049250313e-16,
        0.0,
        0.0,
        0.0,
        0.0,
        1.0
      ],
      "name": "Sketchfab_model"
    },
    {
      "children": [
        2,
        3,
        4,
        5,
        6
      ],
      "name": "SK_SpongeBob_Cutscene.obj.cleaner.materialmerger.gles"
    },
    {
      "mesh": 0,
      "name": "Object_2"
    },
    {
      "mesh": 1,
      "name": "Object_3"
    },
    {
      "mesh": 2,
      "name": "Object_4"
    },
    {
      "mesh": 3,
      "name": "Object_5"
    },
    {
      "mesh": 4,
      "name": "Object_6"
    }
  ],
  "samplers": [
    {
      "magFilter": 9729,
      "minFilter": 9987,
      "wrapS": 10497,
      "wrapT": 10497
    }
  ],
  "scene": 0,
  "scenes": [
    {
      "name": "Sketchfab_Scene",
      "nodes": [
        0
      ]
    }
  ],
  "textures": [
    {
      "sampler": 0,
      "source": 0
    }
  ]
}
